<svg width="406" height="363" viewBox="0 0 406 363" fill="none" xmlns="http://www.w3.org/2000/svg">
<path d="M351.552 0.00235226C350.151 0.0317684 348.77 0.3368 347.487 0.900027C346.204 1.46325 345.045 2.27365 344.075 3.28494C342.117 5.32734 341.05 8.06404 341.109 10.893C341.169 13.722 342.35 16.4115 344.392 18.3699C346.434 20.3283 349.171 21.3951 352 21.3357H369.045L262.165 128.002H202.667C200.826 127.992 199.013 128.458 197.406 129.355C195.799 130.252 194.451 131.55 193.493 133.122L136.533 228.056L103.467 195.202C102.514 194.178 101.358 193.363 100.072 192.812C98.786 192.261 97.399 191.985 96 192.002H10.6667C7.83769 192.002 5.12458 193.126 3.1242 195.127C1.12381 197.127 0 199.84 0 202.669C0 205.498 1.12381 208.211 3.1242 210.212C5.12458 212.212 7.83769 213.336 10.6667 213.336H91.52L131.2 252.802C132.152 253.827 133.309 254.641 134.595 255.192C135.881 255.743 137.268 256.019 138.667 256.002H139.947C141.557 255.779 143.099 255.205 144.463 254.321C145.827 253.436 146.98 252.262 147.84 250.882L208.64 149.336H266.667C268.066 149.353 269.453 149.077 270.739 148.526C272.025 147.975 273.181 147.16 274.133 146.136L384 36.269V53.3357C384 56.1647 385.124 58.8778 387.124 60.8782C389.125 62.8785 391.838 64.0023 394.667 64.0023C397.496 64.0023 400.209 62.8785 402.209 60.8782C404.21 58.8778 405.333 56.1647 405.333 53.3357V10.669C405.333 7.84004 404.21 5.12694 402.209 3.12655C400.209 1.12616 397.496 0.00235226 394.667 0.00235226H352C351.851 -0.000784087 351.701 -0.000784087 351.552 0.00235226Z" fill="#f0f0f3"/>
<path d="M330.667 128.002C327.838 128.002 325.125 129.126 323.124 131.127C321.124 133.127 320 135.84 320 138.669V352.002C320 354.831 321.124 357.544 323.124 359.545C325.125 361.545 327.838 362.669 330.667 362.669H394.667C397.496 362.669 400.209 361.545 402.209 359.545C404.21 357.544 405.333 354.831 405.333 352.002V138.669C405.333 135.84 404.21 133.127 402.209 131.127C400.209 129.126 397.496 128.002 394.667 128.002H330.667Z" fill="#8884d8"/>
<path d="M224 170.669C221.171 170.669 218.458 171.793 216.458 173.793C214.457 175.794 213.333 178.507 213.333 181.336V352.002C213.333 354.831 214.457 357.544 216.458 359.545C218.458 361.545 221.171 362.669 224 362.669H288C290.829 362.669 293.542 361.545 295.543 359.545C297.543 357.544 298.667 354.831 298.667 352.002V181.336C298.667 178.507 297.543 175.794 295.543 173.793C293.542 171.793 290.829 170.669 288 170.669H224Z" fill="#8884d8"/>
<path d="M10.6667 234.669C7.83769 234.669 5.12458 235.793 3.1242 237.793C1.12381 239.794 0 242.507 0 245.336V352.002C0 354.831 1.12381 357.544 3.1242 359.545C5.12458 361.545 7.83769 362.669 10.6667 362.669H74.6667C77.4956 362.669 80.2087 361.545 82.2091 359.545C84.2095 357.544 85.3333 354.831 85.3333 352.002V245.336C85.3333 242.507 84.2095 239.794 82.2091 237.793C80.2087 235.793 77.4956 234.669 74.6667 234.669H10.6667Z" fill="#8884d8"/>
<path d="M117.333 277.336C114.504 277.336 111.791 278.459 109.791 280.46C107.79 282.46 106.667 285.173 106.667 288.002V352.002C106.667 354.831 107.79 357.544 109.791 359.545C111.791 361.545 114.504 362.669 117.333 362.669H181.333C184.162 362.669 186.875 361.545 188.876 359.545C190.876 357.544 192 354.831 192 352.002V288.002C192 285.173 190.876 282.46 188.876 280.46C186.875 278.459 184.162 277.336 181.333 277.336H117.333Z" fill="#8884d8"/>
</svg>
